# xmcd
#
# Track frame offsets:
#	150
#	11430
#	19350
#	29725
#	40054
#	48078
#	58359
#	72146
#	82513
#	91551
#	105495
#
# Disc length: 1574 seconds
# Revision: 0
# Processed by: cddbd v1.5.2PL0 Copyright (c) Steve Scherf et al.
# Submitted via: dBpowerAMP V12.0
#
DISCID=7a06240b
DTITLE=Elvis Presley - He Walks Beside Me
DYEAR=1900
DGENRE=
TTITLE0=He Is My Everything
TTITLE1=Miracle Of The Rosary
TTITLE2=Lord
TTITLE3=Somebody Bigger Than You And I
TTITLE4=An Evening Prayer
TTITLE5=The Impossible Dream
TTITLE6=If I Can Dream
TTITLE7=Padre
TTITLE8=Known Only To Him
TTITLE9=Who Am I
TTITLE10=How Great Thou Art
EXTD=
EXTT0=
EXTT1=
EXTT2=
EXTT3=
EXTT4=
EXTT5=
EXTT6=
EXTT7=
EXTT8=
EXTT9=
EXTT10=
PLAYORDER=
